<mxfile host="app.diagrams.net" modified="2021-05-02T13:12:21.687Z" agent="5.0 (Macintosh; Intel Mac OS X 10_15_6) AppleWebKit/537.36 (KHTML, like Gecko) Chrome/89.0.4389.128 Safari/537.36" etag="3t9r_2yGdqwtGcgC1-ey" version="14.6.1" type="github">
  <diagram id="iR8yl6_0dRUyc5HCrasS" name="第 1 页">
    <mxGraphModel dx="1426" dy="826" grid="1" gridSize="10" guides="1" tooltips="1" connect="1" arrows="1" fold="1" page="1" pageScale="1" pageWidth="827" pageHeight="1169" math="0" shadow="0">
      <root>
        <mxCell id="0" />
        <mxCell id="1" parent="0" />
        <mxCell id="YNWaMITplkxuy24pmoae-1" value="开始" style="strokeWidth=2;html=1;shape=mxgraph.flowchart.terminator;whiteSpace=wrap;fontSize=15;" vertex="1" parent="1">
          <mxGeometry x="275" y="210" width="90" height="50" as="geometry" />
        </mxCell>
        <mxCell id="YNWaMITplkxuy24pmoae-2" value="网络通畅？" style="strokeWidth=2;html=1;shape=mxgraph.flowchart.decision;whiteSpace=wrap;fontSize=15;" vertex="1" parent="1">
          <mxGeometry x="250" y="450" width="140" height="70" as="geometry" />
        </mxCell>
        <mxCell id="YNWaMITplkxuy24pmoae-3" value="输入查询条件" style="rounded=0;whiteSpace=wrap;html=1;absoluteArcSize=1;arcSize=14;strokeWidth=2;fontSize=15;" vertex="1" parent="1">
          <mxGeometry x="270" y="290" width="100" height="50" as="geometry" />
        </mxCell>
        <mxCell id="YNWaMITplkxuy24pmoae-4" value="结束" style="strokeWidth=2;html=1;shape=mxgraph.flowchart.terminator;whiteSpace=wrap;fontSize=15;" vertex="1" parent="1">
          <mxGeometry x="450" y="460" width="90" height="50" as="geometry" />
        </mxCell>
        <mxCell id="YNWaMITplkxuy24pmoae-5" value="浏览器发送请求" style="rounded=0;whiteSpace=wrap;html=1;absoluteArcSize=1;arcSize=14;strokeWidth=2;fontSize=15;" vertex="1" parent="1">
          <mxGeometry x="260" y="370" width="120" height="50" as="geometry" />
        </mxCell>
        <mxCell id="YNWaMITplkxuy24pmoae-6" value="" style="endArrow=classic;html=1;fontSize=15;strokeWidth=2;entryX=0.5;entryY=0;entryDx=0;entryDy=0;exitX=0.5;exitY=1;exitDx=0;exitDy=0;exitPerimeter=0;" edge="1" parent="1" source="YNWaMITplkxuy24pmoae-1" target="YNWaMITplkxuy24pmoae-3">
          <mxGeometry width="50" height="50" relative="1" as="geometry">
            <mxPoint x="130" y="200" as="sourcePoint" />
            <mxPoint x="180" y="150" as="targetPoint" />
          </mxGeometry>
        </mxCell>
        <mxCell id="YNWaMITplkxuy24pmoae-7" value="" style="endArrow=classic;html=1;fontSize=15;strokeWidth=2;exitX=0.5;exitY=1;exitDx=0;exitDy=0;entryX=0.5;entryY=0;entryDx=0;entryDy=0;" edge="1" parent="1" source="YNWaMITplkxuy24pmoae-3" target="YNWaMITplkxuy24pmoae-5">
          <mxGeometry width="50" height="50" relative="1" as="geometry">
            <mxPoint x="510" y="220" as="sourcePoint" />
            <mxPoint x="560" y="170" as="targetPoint" />
          </mxGeometry>
        </mxCell>
        <mxCell id="YNWaMITplkxuy24pmoae-8" value="" style="endArrow=classic;html=1;fontSize=15;strokeWidth=2;exitX=0.5;exitY=1;exitDx=0;exitDy=0;entryX=0.5;entryY=0;entryDx=0;entryDy=0;entryPerimeter=0;" edge="1" parent="1" source="YNWaMITplkxuy24pmoae-5" target="YNWaMITplkxuy24pmoae-2">
          <mxGeometry width="50" height="50" relative="1" as="geometry">
            <mxPoint x="410" y="500" as="sourcePoint" />
            <mxPoint x="460" y="450" as="targetPoint" />
          </mxGeometry>
        </mxCell>
        <mxCell id="YNWaMITplkxuy24pmoae-9" value="" style="endArrow=classic;html=1;fontSize=15;strokeWidth=2;exitX=0.5;exitY=1;exitDx=0;exitDy=0;exitPerimeter=0;entryX=0.5;entryY=0;entryDx=0;entryDy=0;" edge="1" parent="1" source="YNWaMITplkxuy24pmoae-2" target="YNWaMITplkxuy24pmoae-13">
          <mxGeometry width="50" height="50" relative="1" as="geometry">
            <mxPoint x="510" y="490" as="sourcePoint" />
            <mxPoint x="310" y="600" as="targetPoint" />
          </mxGeometry>
        </mxCell>
        <mxCell id="YNWaMITplkxuy24pmoae-10" value="Y" style="text;html=1;align=center;verticalAlign=middle;resizable=0;points=[];autosize=1;strokeColor=none;fontSize=15;" vertex="1" parent="1">
          <mxGeometry x="290" y="530" width="30" height="20" as="geometry" />
        </mxCell>
        <mxCell id="YNWaMITplkxuy24pmoae-11" value="" style="endArrow=classic;html=1;fontSize=15;strokeWidth=2;exitX=1;exitY=0.5;exitDx=0;exitDy=0;exitPerimeter=0;entryX=0;entryY=0.5;entryDx=0;entryDy=0;entryPerimeter=0;" edge="1" parent="1" source="YNWaMITplkxuy24pmoae-2" target="YNWaMITplkxuy24pmoae-4">
          <mxGeometry width="50" height="50" relative="1" as="geometry">
            <mxPoint x="480" y="440" as="sourcePoint" />
            <mxPoint x="530" y="390" as="targetPoint" />
          </mxGeometry>
        </mxCell>
        <mxCell id="YNWaMITplkxuy24pmoae-13" value="服务端接受请求" style="rounded=0;whiteSpace=wrap;html=1;absoluteArcSize=1;arcSize=14;strokeWidth=2;fontSize=15;" vertex="1" parent="1">
          <mxGeometry x="260" y="560" width="120" height="50" as="geometry" />
        </mxCell>
        <mxCell id="YNWaMITplkxuy24pmoae-16" value="浏览接收并显示结果" style="rounded=0;whiteSpace=wrap;html=1;absoluteArcSize=1;arcSize=14;strokeWidth=2;fontSize=15;" vertex="1" parent="1">
          <mxGeometry x="245" y="740" width="150" height="50" as="geometry" />
        </mxCell>
        <mxCell id="YNWaMITplkxuy24pmoae-17" value="服务端处理请求并返回" style="rounded=0;whiteSpace=wrap;html=1;absoluteArcSize=1;arcSize=14;strokeWidth=2;fontSize=15;" vertex="1" parent="1">
          <mxGeometry x="240" y="650" width="160" height="50" as="geometry" />
        </mxCell>
        <mxCell id="YNWaMITplkxuy24pmoae-18" value="" style="endArrow=classic;html=1;fontSize=15;strokeWidth=2;exitX=0.5;exitY=1;exitDx=0;exitDy=0;entryX=0.5;entryY=0;entryDx=0;entryDy=0;" edge="1" parent="1" source="YNWaMITplkxuy24pmoae-13" target="YNWaMITplkxuy24pmoae-17">
          <mxGeometry width="50" height="50" relative="1" as="geometry">
            <mxPoint x="510" y="640" as="sourcePoint" />
            <mxPoint x="560" y="590" as="targetPoint" />
          </mxGeometry>
        </mxCell>
        <mxCell id="YNWaMITplkxuy24pmoae-19" value="" style="endArrow=classic;html=1;fontSize=15;strokeWidth=2;exitX=0.5;exitY=1;exitDx=0;exitDy=0;" edge="1" parent="1" source="YNWaMITplkxuy24pmoae-17" target="YNWaMITplkxuy24pmoae-16">
          <mxGeometry width="50" height="50" relative="1" as="geometry">
            <mxPoint x="520" y="690" as="sourcePoint" />
            <mxPoint x="570" y="640" as="targetPoint" />
          </mxGeometry>
        </mxCell>
        <mxCell id="YNWaMITplkxuy24pmoae-20" value="N" style="text;html=1;align=center;verticalAlign=middle;resizable=0;points=[];autosize=1;strokeColor=none;fontSize=15;" vertex="1" parent="1">
          <mxGeometry x="400" y="460" width="30" height="20" as="geometry" />
        </mxCell>
        <mxCell id="YNWaMITplkxuy24pmoae-21" value="" style="endArrow=classic;html=1;fontSize=15;strokeWidth=2;exitX=1;exitY=0.5;exitDx=0;exitDy=0;entryX=0.5;entryY=1;entryDx=0;entryDy=0;entryPerimeter=0;rounded=0;" edge="1" parent="1" source="YNWaMITplkxuy24pmoae-16" target="YNWaMITplkxuy24pmoae-4">
          <mxGeometry width="50" height="50" relative="1" as="geometry">
            <mxPoint x="560" y="860" as="sourcePoint" />
            <mxPoint x="560" y="780" as="targetPoint" />
            <Array as="points">
              <mxPoint x="495" y="765" />
            </Array>
          </mxGeometry>
        </mxCell>
      </root>
    </mxGraphModel>
  </diagram>
</mxfile>
